<svg width="32" height="27" viewBox="0 0 32 27" fill="none" xmlns="http://www.w3.org/2000/svg">
<path d="M1.03334 21.0427L12.6623 2.27117C14.1524 -0.136365 17.8476 -0.136365 19.3377 2.27117L29.0164 17.8945C27.9351 16.2002 25.6099 15.6261 23.7816 16.6095L9.65058 24.2254L14.0848 21.8475L6.28629 26.0351C2.85437 27.8788 -0.956737 24.2573 1.03334 21.0427Z" fill="#1FC4DB"/>
<path d="M29.0416 17.9349L30.9665 21.0427C32.9566 24.2573 29.1455 27.8788 25.7135 26.0351L17.915 21.8452C16.7292 21.2086 15.2729 21.2086 14.0846 21.8452L9.65039 24.2254L23.7814 16.6095C25.6242 15.6183 27.9717 16.2094 29.0416 17.9349Z" fill="#0A132C"/>
</svg>
